<?xml version="1.0" encoding="utf-8"?>
<!-- Generator: Adobe Illustrator 18.1.1, SVG Export Plug-In . SVG Version: 6.00 Build 0)  -->
<svg version="1.1" id="happy-valentines-day" xmlns="http://www.w3.org/2000/svg" xmlns:xlink="http://www.w3.org/1999/xlink"
	 x="0px" y="0px" viewBox="0 0 138.4 37.2" enable-background="new 0 0 138.4 37.2" xml:space="preserve">
<g>
	<path fill="#B7176E" d="M0.3,37.2V24.5h6.3c0.1,2.3,0.7,4,1.8,5.1c1.1,1.1,2.4,1.6,3.9,1.6c1.1,0,2.1-0.4,2.9-1.2
		c0.8-0.8,1.2-1.7,1.2-2.8c0-1.1-0.4-2.1-1.1-2.9c-0.8-0.8-2.2-1.7-4.2-2.6c-4.3-2.1-7.2-3.9-8.8-5.5C0.8,14.7,0,12.6,0,9.9
		c0-3.2,1-5.8,3-7.6c2-1.8,4.3-2.7,6.9-2.7c3,0,5.2,1.2,6.9,3.5V0h6.3v11.3h-6.3C16.6,9.6,16,8.2,15,7.3c-1-1-2.2-1.4-3.5-1.4
		c-1,0-1.9,0.3-2.6,0.8C8.2,7.2,7.8,7.9,7.8,8.8c0,0.8,0.3,1.5,0.9,2.2c0.6,0.7,2.3,1.7,5.2,2.9c2.7,1.2,4.9,2.3,6.3,3.3
		s2.6,2.3,3.5,3.9c0.9,1.6,1.3,3.4,1.3,5.5c0,3.7-1.1,6.4-3.2,8.3c-2.1,1.9-4.7,2.8-7.6,2.8c-3.3,0-5.8-1.2-7.5-3.6v3.2H0.3z"/>
	<path fill="#B7176E" d="M66.2,30.9v6.3H47.9v-6.3h4.8l-1.8-6.4h-9.7l-2,6.4h5v6.3H27.8v-6.3h4.6l7.2-24.6h-4.9V0h24.3v6.3h-5
		l7.8,24.6H66.2z M49.4,19.1L46.3,7.9l-3.3,11.2H49.4z"/>
	<path fill="#B7176E" d="M69.1,37.2v-6.3h5.3V6.3h-5.3V0h20.4v6.3h-5.4v24.6h11V19.4h7.2v17.8H69.1z"/>
	<path fill="#B7176E" d="M105.6,37.2v-6.3h4.5V6.3h-4.5V0h32.8v11.8h-7.1V6.3h-11.5v8.6h9.3v6.3h-9.3v9.8h11.5v-5.6h7.1v11.8H105.6z
		"/>
</g>
</svg>
