<?xml version="1.0" encoding="utf-8"?>
<!-- Generator: Adobe Illustrator 18.1.1, SVG Export Plug-In . SVG Version: 6.00 Build 0)  -->
<svg version="1.1" id="Layer_1" xmlns="http://www.w3.org/2000/svg" xmlns:xlink="http://www.w3.org/1999/xlink" x="0px" y="0px"
	 viewBox="0 0 718.8 424.9" enable-background="new 0 0 718.8 424.9" xml:space="preserve">
<g>
	<linearGradient id="SVGID_1_" gradientUnits="userSpaceOnUse" x1="403.5185" y1="416.0985" x2="114.9859" y2="127.566">
		<stop  offset="0" style="stop-color:#E6E7E8"/>
		<stop  offset="0.9939" style="stop-color:#F1F2F2"/>
	</linearGradient>
	<path fill="url(#SVGID_1_)" d="M373.2,381.2c-50.4,4.4-107.3-32.9-171.9-48.7c21.8-35.8,36.1-75.3,47.4-112.3
		c80.9-54.7,128.7-145.8,130.6-177.5c2.6-43.8-38.6-71-108.1,6.3c-42.9,47.8-64.9,108.7-82.8,166.5c-25.5,4.7-52.3,3.6-79.4-5.5
		C14.4,178.4,13.6,87.3,64.6,64.7c51-22.6,78.3,28.4,78.3,28.4c10.7-46.7-74.9-64-121.6,0.2c-46.7,64.2-21.4,186.5,122,168
		c11.4-1.5,22.5-3.8,33.2-6.9c-6.6,21.6-13.1,42.3-20.6,60.9c-1.4,3.6-2.9,7-4.4,10.4c-72.6,0.2-130.9,51.8-126.4,81
		c4.5,29,88.3,23.8,142.6-30.1c34.9,17.4,71.1,41.2,128.5,47.6c62.1,6.9,112.8-33.5,130.7-60.3c8.2-12.3,8.1-20.6,8.1-20.6
		S414.2,377.6,373.2,381.2z M268.2,151.2c17.8-62,31.7-129.6,63.7-140.4c31.9-10.9,58,25.5,9.8,95.7c-21,30.6-49.9,60.1-83.6,81.1
		C261.6,174.8,264.9,162.6,268.2,151.2z M49.5,416.3c-30.1-6.2-10.2-62.1,53.9-59.1c10.1,0.5,19.6,2.2,28.7,4.9
		C104.5,404.6,72.5,421,49.5,416.3z"/>
	<linearGradient id="SVGID_2_" gradientUnits="userSpaceOnUse" x1="502.8687" y1="316.7444" x2="214.3376" y2="28.2134">
		<stop  offset="0" style="stop-color:#E6E7E8"/>
		<stop  offset="0.9939" style="stop-color:#F1F2F2"/>
	</linearGradient>
	<path fill="url(#SVGID_2_)" d="M601.3,171.5c-14.9-12.6-46.8,6.4-59.9,24.1c-13.1,17.7,39.9,8.4,29.2,31.9
		c-22.3,49-55,75.1-55,75.1c-1.3-58.3-9.6-120.6-13.3-124.5c-3.7-3.9-22.3,15.1-38,14.9c-27.6-0.3-31.9-23-42.4-21.5
		c0.8-1.4-61.4,19.2-27,50.2c4.9,4.4,9.8,7.5,14.5,9.5c-0.9,12.9-4.2,29.2-11.6,49.6c-14.1,38.8-44.7,39.7-53.8,25
		c-10.2-16.5-9.8-57.8-0.7-89.1c9.6-33.1,25.7-42.8,42.9-46.1c0,0-1.5-4.3-10.5-4.3c-17,0.1-56.5,12.3-79.4,68.9
		c-29.7,73.4-16.6,148.9,48.2,123.8c59.1-22.9,72.5-89.4,76.7-124.5c23.5,2.7,41.8-16.1,41.8-16.1c-12.7,67.6-8.7,131.6,2.2,139.8
		c10.9,8.2,35.3-6.3,88-80.4C574.9,247.4,616.2,184.1,601.3,171.5z"/>
	<linearGradient id="SVGID_3_" gradientUnits="userSpaceOnUse" x1="604.668" y1="214.9478" x2="316.1345" y2="-73.5857">
		<stop  offset="0" style="stop-color:#E6E7E8"/>
		<stop  offset="0.9939" style="stop-color:#F1F2F2"/>
	</linearGradient>
	<path fill="url(#SVGID_3_)" d="M661,322.7c-19.9-16.3-10.2-61.6-10.2-61.6c23.8-11.8,44.5-24.4,52.9-47.9
		c9.4-26.5,1.4-51.7-32.2-42.3c-33.6,9.4-73.1,50.8-79.3,118.5c-6.2,67.7,26.7,81.6,63.3,70.6c24.8-7.4,45-33,54.6-46.1
		c8.4-11.4,8.6-17.2,8.6-17.2S683.3,341,661,322.7z M688.3,178.5c19.9,3.7,14.4,52.6-35.3,71.4C653,250,668.5,174.9,688.3,178.5z"/>
</g>
</svg>
